<svg xmlns="http://www.w3.org/2000/svg" width="1600" height="950" viewBox="0 0 1600 950">
<style>
text{font-family:Arial,sans-serif;fill:#111}.title{font-size:30px;font-weight:bold}.h{font-size:20px;font-weight:bold}.t{font-size:15px}
.box{fill:white;stroke:#222;stroke-width:2;rx:14}.layer{fill:#f5f5f5;stroke:#555;stroke-width:2;rx:18}
.arrow{stroke:#222;stroke-width:2;fill:none;marker-end:url(#a)}
</style>
<defs><marker id="a" markerWidth="10" markerHeight="10" refX="9" refY="3" orient="auto"><path d="M0,0 L0,6 L9,3 z" fill="#222"/></marker></defs>
<text x="800" y="42" text-anchor="middle" class="title">BreuTech Operational Intelligence Platform — System Blueprint</text>

<rect x="60" y="85" width="1480" height="120" class="layer"/>
<text x="85" y="116" class="h">Sources</text>
<rect x="100" y="135" width="220" height="50" class="box"/><text x="210" y="166" text-anchor="middle" class="t">VMware / ESXi</text>
<rect x="350" y="135" width="180" height="50" class="box"/><text x="440" y="166" text-anchor="middle" class="t">Xen</text>
<rect x="560" y="135" width="200" height="50" class="box"/><text x="660" y="166" text-anchor="middle" class="t">Kubernetes</text>
<rect x="790" y="135" width="280" height="50" class="box"/><text x="930" y="166" text-anchor="middle" class="t">Metrics / Logs / Events</text>
<rect x="1100" y="135" width="360" height="50" class="box"/><text x="1280" y="166" text-anchor="middle" class="t">ITSM / CMDB / Git / Automation</text>

<rect x="60" y="245" width="1480" height="120" class="layer"/>
<text x="85" y="276" class="h">Collection and normalization</text>
<rect x="180" y="295" width="300" height="50" class="box"/><text x="330" y="326" text-anchor="middle" class="t">Connector SDK and Runtime</text>
<rect x="650" y="295" width="300" height="50" class="box"/><text x="800" y="326" text-anchor="middle" class="t">Observer and Normalizer</text>
<rect x="1120" y="295" width="280" height="50" class="box"/><text x="1260" y="326" text-anchor="middle" class="t">Canonical Event Stream</text>

<rect x="60" y="405" width="1480" height="130" class="layer"/>
<text x="85" y="436" class="h">Data and operational memory</text>
<rect x="100" y="465" width="240" height="50" class="box"/><text x="220" y="496" text-anchor="middle" class="t">PostgreSQL / AGE</text>
<rect x="375" y="465" width="220" height="50" class="box"/><text x="485" y="496" text-anchor="middle" class="t">Metrics Store</text>
<rect x="630" y="465" width="220" height="50" class="box"/><text x="740" y="496" text-anchor="middle" class="t">OpenSearch</text>
<rect x="885" y="465" width="220" height="50" class="box"/><text x="995" y="496" text-anchor="middle" class="t">MinIO</text>
<rect x="1140" y="465" width="320" height="50" class="box"/><text x="1300" y="496" text-anchor="middle" class="t">Knowledge + Decision Graph</text>

<rect x="60" y="575" width="1480" height="150" class="layer"/>
<text x="85" y="606" class="h">Operational intelligence</text>
<rect x="90" y="640" width="235" height="55" class="box"/><text x="208" y="672" text-anchor="middle" class="t">Evidence Engine</text>
<rect x="350" y="640" width="210" height="55" class="box"/><text x="455" y="672" text-anchor="middle" class="t">Reasoner</text>
<rect x="585" y="640" width="210" height="55" class="box"/><text x="690" y="672" text-anchor="middle" class="t">Predictor</text>
<rect x="820" y="640" width="210" height="55" class="box"/><text x="925" y="672" text-anchor="middle" class="t">Guardian</text>
<rect x="1055" y="640" width="210" height="55" class="box"/><text x="1160" y="672" text-anchor="middle" class="t">Advisor</text>
<rect x="1290" y="640" width="210" height="55" class="box"/><text x="1395" y="672" text-anchor="middle" class="t">Operations DNA</text>

<rect x="60" y="765" width="1480" height="125" class="layer"/>
<text x="85" y="796" class="h">Policy, approval, execution, and learning</text>
<rect x="100" y="825" width="240" height="45" class="box"/><text x="220" y="853" text-anchor="middle" class="t">OPA Policy</text>
<rect x="390" y="825" width="240" height="45" class="box"/><text x="510" y="853" text-anchor="middle" class="t">Human Approval</text>
<rect x="680" y="825" width="240" height="45" class="box"/><text x="800" y="853" text-anchor="middle" class="t">Temporal Orchestrator</text>
<rect x="970" y="825" width="240" height="45" class="box"/><text x="1090" y="853" text-anchor="middle" class="t">Execution Adapters</text>
<rect x="1260" y="825" width="240" height="45" class="box"/><text x="1380" y="853" text-anchor="middle" class="t">AI Governance</text>

<path d="M800 205 L800 245" class="arrow"/><path d="M800 365 L800 405" class="arrow"/>
<path d="M800 535 L800 575" class="arrow"/><path d="M800 725 L800 765" class="arrow"/>
</svg>
